<mxfile host="app.diagrams.net" modified="2023-10-20T10:34:21.630Z" agent="Mozilla/5.0 (Windows NT 10.0; Win64; x64) AppleWebKit/537.36 (KHTML, like Gecko) Chrome/117.0.0.0 Safari/537.36" version="22.0.5" etag="YM-CSIld9VWfsHScFdTe" type="github">
  <diagram name="第 1 页" id="FBt-Wr3wJZx8jzVxM73h">
    <mxGraphModel>
      <root>
        <mxCell id="0" />
        <mxCell id="1" parent="0" />
      </root>
    </mxGraphModel>
  </diagram>
</mxfile>
